<?xml version="1.0" standalone="no"?>
<!DOCTYPE svg PUBLIC "-//W3C//DTD SVG 20010904//EN"
 "http://www.w3.org/TR/2001/REC-SVG-20010904/DTD/svg10.dtd">
<svg version="1.0" xmlns="http://www.w3.org/2000/svg"
 width="500.000000pt" height="500.000000pt" viewBox="0 0 500.000000 500.000000"
 preserveAspectRatio="xMidYMid meet">
<metadata>
Created by potrace 1.16, written by Peter Selinger 2001-2019
</metadata>
<g transform="translate(0.000000,500.000000) scale(0.100000,-0.100000)"
fill="#000000" stroke="none">
<path d="M0 2500 l0 -2500 2500 0 2500 0 0 2500 0 2500 -2500 0 -2500 0 0
-2500z m1248 788 l3 -68 -273 -2 c-150 0 -277 -2 -283 -3 -5 -2 -16 -3 -23 -4
-10 -1 -12 -20 -10 -73 l3 -73 245 -5 c213 -4 250 -7 273 -23 53 -35 62 -61
62 -187 0 -135 -13 -168 -75 -200 -37 -19 -58 -20 -345 -20 l-305 0 0 70 0 70
290 0 290 0 0 74 0 75 -243 3 c-269 3 -277 5 -317 71 -17 27 -20 51 -20 148 0
104 2 120 23 150 45 68 56 69 397 67 l305 -3 3 -67z m728 51 c31 -15 48 -32
64 -63 19 -41 20 -57 18 -342 l-3 -299 -66 -3 -66 -3 -7 38 c-3 21 -6 151 -6
290 l0 251 -65 4 c-36 1 -70 2 -75 0 -6 -2 -10 -113 -10 -293 l0 -290 -67 3
-68 3 -5 290 -5 290 -70 -2 -70 -1 -3 -291 -2 -291 -70 0 -70 0 0 314 c0 437
-18 416 359 416 227 0 248 -2 287 -21z m797 7 c52 -21 85 -68 92 -131 4 -31 4
-175 0 -320 l-7 -265 -69 0 -69 0 0 145 0 145 -220 0 -219 0 -3 -142 -3 -143
-66 -3 c-62 -3 -67 -1 -73 20 -11 41 -7 575 5 605 14 37 47 73 84 89 43 19
502 20 548 0z m833 -12 c56 -41 66 -65 70 -161 7 -197 -39 -253 -206 -253 -44
0 -80 -2 -80 -5 0 -3 30 -37 67 -75 l66 -70 74 0 73 0 0 -70 0 -70 -95 0 -95
0 -88 79 c-48 43 -116 109 -152 145 -59 61 -68 66 -107 66 l-43 0 0 -122 c0
-172 1 -168 -75 -168 -57 0 -63 2 -69 23 -8 31 -8 692 1 701 4 4 148 5 319 4
298 -3 314 -4 340 -24z m874 -44 l0 -69 -142 -3 -143 -3 -3 -292 -2 -293 -69
0 -68 0 -6 188 c-4 103 -7 236 -7 295 0 80 -3 107 -12 106 -7 -1 -73 -1 -145
0 l-133 1 0 63 c0 35 3 67 7 70 3 4 168 7 365 7 l358 0 0 -70z m-3487 -813
c68 -51 67 -47 67 -437 l0 -350 -75 0 -75 0 -2 338 -3 337 -85 0 -85 0 -3
-337 -2 -338 -75 0 -75 0 0 335 0 335 -23 5 c-12 3 -54 5 -92 3 l-70 -3 -3
-337 -2 -338 -75 0 -75 0 0 346 c0 300 2 351 16 381 18 36 65 77 99 86 11 3
151 5 311 4 l291 -2 36 -28z m908 10 c31 -16 51 -36 67 -67 21 -43 22 -54 22
-310 0 -148 -5 -281 -10 -302 -6 -21 -27 -51 -49 -71 -51 -46 -81 -49 -402
-45 l-256 3 -36 28 c-68 52 -68 53 -65 390 3 341 2 336 83 377 37 19 59 20
321 20 273 0 282 -1 325 -23z m574 -257 c149 -149 273 -270 278 -270 4 0 7
124 7 275 l0 275 75 0 75 0 0 -383 c0 -415 0 -417 -55 -431 -15 -4 -37 0 -53
8 -15 8 -144 132 -287 275 -143 144 -263 261 -267 261 -5 0 -8 -124 -8 -275
l0 -275 -75 0 -75 0 0 385 0 386 26 26 c49 49 63 39 359 -257z m1365 210 l0
-70 -335 0 -335 0 0 -100 0 -100 335 0 335 0 0 -70 0 -70 -335 0 -335 0 0 -95
0 -95 335 0 335 0 0 -76 0 -75 -358 3 -359 3 -36 28 c-68 52 -68 53 -65 390 3
341 2 336 83 377 38 19 59 20 388 20 l347 0 0 -70z m252 -97 l3 -168 255 0
255 0 3 168 2 167 76 0 75 0 -3 -359 c-3 -348 -4 -361 -24 -388 -12 -15 -36
-37 -55 -48 -32 -19 -55 -20 -386 -23 l-353 -3 0 76 0 75 335 0 336 0 -3 93
-3 92 -282 5 c-265 5 -283 6 -309 26 -66 49 -69 58 -72 265 l-3 189 75 0 76 0
2 -167z"/>
<path d="M2317 3213 l-38 -4 3 -72 3 -72 215 0 215 0 0 75 0 75 -180 1 c-99 1
-197 0 -218 -3z"/>
<path d="M3094 3205 c-3 -7 -4 -41 -2 -76 l3 -64 215 0 215 0 3 69 c2 46 -1
72 -9 77 -6 4 -104 7 -216 7 -153 0 -206 -4 -209 -13z"/>
<path d="M1320 2105 l0 -265 260 0 260 0 -2 263 -3 262 -257 3 -258 2 0 -265z"/>
</g>
</svg>
